<?xml version="1.0" standalone="no"?>
<!DOCTYPE svg PUBLIC "-//W3C//DTD SVG 20010904//EN"
 "http://www.w3.org/TR/2001/REC-SVG-20010904/DTD/svg10.dtd">
<svg version="1.0" xmlns="http://www.w3.org/2000/svg"
 width="429.000000pt" height="429.000000pt" viewBox="0 0 429.000000 429.000000"
 preserveAspectRatio="xMidYMid meet">
<metadata>
Created by potrace 1.14, written by Peter Selinger 2001-2017
</metadata>
<g transform="translate(0.000000,429.000000) scale(0.100000,-0.100000)"
fill="#000000" stroke="none">
<path d="M2238 4265 c-2 -1 -39 -5 -83 -9 -44 -3 -91 -8 -105 -11 -14 -3 -41
-8 -60 -11 -97 -17 -292 -76 -317 -96 -7 -6 -13 -8 -13 -4 0 14 -295 -146
-320 -174 -3 -3 -30 -24 -60 -46 -92 -69 -186 -167 -289 -300 -5 -6 -34 -53
-65 -105 -93 -155 -164 -362 -181 -524 -4 -33 -8 -71 -11 -85 -5 -29 -4 -269
1 -320 15 -142 88 -343 156 -426 103 -126 215 -198 330 -210 62 -6 65 -5 78
19 20 37 9 121 -29 232 -11 33 -22 71 -24 85 -2 14 -7 43 -12 65 -5 22 -8 119
-8 215 0 153 5 208 30 330 11 54 37 138 56 178 11 26 21 53 21 60 0 6 3 12 7
12 3 0 14 18 24 40 10 22 23 46 29 53 7 6 25 32 42 57 28 42 156 176 201 210
72 55 172 112 248 141 219 84 504 99 706 36 57 -17 180 -78 180 -89 0 -4 4 -8
10 -8 23 0 152 -125 197 -190 30 -45 71 -121 70 -130 0 -3 6 -16 13 -30 8 -14
15 -29 16 -35 1 -5 12 -45 23 -87 26 -101 38 -186 41 -308 1 -36 1 -67 1 -70
-1 -3 -3 -54 -5 -115 -3 -60 -8 -123 -11 -140 -4 -16 -7 -37 -7 -45 0 -27 -30
-155 -38 -164 -5 -5 -6 -14 -4 -20 3 -7 0 -26 -6 -42 -6 -16 -11 -29 -10 -29
1 0 -10 -33 -25 -73 -41 -114 -120 -275 -152 -310 -7 -7 -13 -18 -13 -23 0 -5
-4 -15 -10 -22 -5 -7 -37 -49 -70 -94 -76 -103 -216 -244 -304 -308 -16 -11
-33 -24 -40 -30 -6 -5 -23 -16 -38 -24 -16 -8 -28 -18 -28 -23 0 -4 -6 -8 -14
-8 -7 0 -18 -6 -24 -13 -6 -6 -39 -27 -75 -45 l-64 -33 -125 123 c-69 68 -131
128 -139 133 -48 36 -114 79 -115 75 -1 -3 -10 2 -20 11 -36 32 -189 92 -309
123 -88 22 -182 31 -335 31 -238 0 -348 -20 -495 -90 -242 -116 -353 -304
-321 -545 31 -235 181 -421 419 -522 143 -60 235 -84 404 -103 44 -5 371 -6
423 -1 142 13 178 17 200 21 48 8 105 17 135 20 17 2 70 13 118 25 l89 22 86
-85 c48 -47 101 -96 117 -109 17 -12 32 -26 33 -30 2 -5 9 -8 16 -8 7 0 21 -8
32 -17 10 -10 44 -31 74 -47 30 -16 58 -34 62 -40 4 -6 8 -8 8 -4 0 4 19 -2
43 -12 59 -26 180 -57 257 -66 205 -24 502 11 655 76 116 50 257 163 292 235
44 90 18 106 -157 100 -69 -2 -147 -7 -175 -10 -27 -3 -70 -8 -95 -10 -69 -6
-381 -6 -413 0 -79 15 -207 73 -258 118 -15 12 -41 33 -58 46 -39 30 -38 31
94 101 207 110 389 243 552 406 46 46 83 86 83 90 0 4 8 14 18 23 94 87 271
380 352 586 45 112 91 267 86 282 -3 7 -1 13 4 13 6 0 9 3 9 8 -1 4 0 9 1 12
3 8 6 27 24 120 29 154 33 187 41 355 4 65 9 123 12 129 3 5 1 6 -5 2 -9 -5
-9 0 -2 18 5 14 6 26 2 26 -4 0 -8 46 -8 103 -1 56 -5 117 -8 135 -3 17 -8 47
-11 65 -33 190 -136 442 -223 542 -12 14 -20 25 -17 25 5 0 -28 41 -62 77 -13
13 -23 28 -23 34 0 6 -4 7 -10 4 -5 -3 -10 -2 -10 3 0 22 -157 157 -260 224
-156 101 -383 191 -565 223 -16 2 -39 7 -50 9 -68 13 -426 31 -437 21z m-857
-3035 c60 -11 191 -65 197 -82 2 -4 10 -8 18 -8 8 0 14 -4 14 -10 0 -5 6 -10
13 -10 12 0 137 -109 127 -111 -3 0 -18 -2 -35 -4 -16 -2 -39 -6 -51 -9 -12
-3 -39 -8 -60 -11 -21 -4 -50 -9 -64 -12 -41 -9 -369 -11 -408 -2 -21 4 -53
11 -72 14 -154 27 -198 151 -75 209 82 39 280 57 396 36z"/>
</g>
</svg>
